<?xml version="1.0" encoding="UTF-8" standalone="no"?>
<!-- Created with Inkscape (http://www.inkscape.org/) -->

<svg
   viewBox="0 0 16 12"
   version="1.1"
   xmlns="http://www.w3.org/2000/svg"
>
  <defs id="defs2">
    <linearGradient id="linearGradient9780">
      <stop
         style="stop-color:#41d1ff;stop-opacity:1;"
         offset="0"
      />
      <stop
         style="stop-color:#bd34fe;stop-opacity:1;"
         offset="1"
      />
    </linearGradient>
    <linearGradient id="linearGradient4664">
      <stop
         style="stop-color:#ffea83;stop-opacity:1;"
         offset="0"
      />
      <stop
         style="stop-color:#ffdd35;stop-opacity:1;"
         offset="0.08"
      />
      <stop
         style="stop-color:#ffa800;stop-opacity:1;"
         offset="1"
      />
    </linearGradient>
  </defs>
  <g>
    <path
       style="fill:url(#linearGradient9780);"
       d="m 4,7.875 v 2.25 a 0.29279115,0.29279115 37.981878 0 0 0.3638034,0.284049 L 11.636197,8.5909509 A 0.48029115,0.48029115 127.98188 0 0 12,8.125 V 5.875 A 0.29279115,0.29279115 37.981878 0 0 11.636197,5.5909509 L 4.3638034,7.4090491 A 0.48029115,0.48029115 127.98188 0 0 4,7.875 Z"
    />
    <path
       style="fill:url(#linearGradient9780);"
       d="m 4,3.875 v 2.25 A 0.29279115,0.29279115 37.981878 0 0 4.3638034,6.4090491 L 11.636197,4.5909509 A 0.48029115,0.48029115 127.98188 0 0 12,4.125 V 1.875 A 0.29279115,0.29279115 37.981878 0 0 11.636197,1.5909509 L 4.3638034,3.4090491 A 0.48029115,0.48029115 127.98188 0 0 4,3.875 Z"
    />
  </g>
  <path
     style="fill:url(#linearGradient4664);"
     d="M 4.3721042,6.953487 7.6278958,6.546513 A 0.33104333,0.33104333 41.437492 0 1 8,6.875 v 0.25 A 0.29279115,0.29279115 37.981878 0 0 8.3638034,7.4090491 L 11.636197,6.5909509 A 0.48029115,0.48029115 127.98188 0 0 12,6.125 V 3.875 A 0.23176275,0.23176275 31.717474 0 0 11.66459,3.6677051 L 8.3354102,5.3322949 A 0.23176275,0.23176275 31.717474 0 1 8,5.125 V 4.875 A 0.20784287,0.20784287 28.997308 0 0 7.6820006,4.6987496 L 4.3179994,6.8012504 a 0.08272485,0.08272485 70.4348 0 0 0.054105,0.1522366 z"
  />
</svg>
