  <svg
    viewBox="0 0 34 34"
    fill="none"
    xmlns="http://www.w3.org/2000/svg"
  >
    <g fill="#818cf8" fill-rule="evenodd" clip-rule="evenodd">
      <g>
        <path d="M22.2132 5.02384C21.9775 5.00803 21.7397 5 21.5 5C16.8805 5 12.9578 7.9831 11.5532 12.128C11.1975 11.3244 11 10.4353 11 9.5C11 5.91015 13.9101 3 17.5 3C19.3552 3 21.0289 3.77723 22.2132 5.02384Z" />
        <path d="M5.02384 11.7867C5.00803 12.0224 5 12.2602 5 12.4999C5 17.1194 7.9831 21.0421 12.128 22.4468C11.3244 22.8024 10.4353 22.9999 9.5 22.9999C5.91015 22.9999 3 20.0898 3 16.4999C3 14.6447 3.77723 12.971 5.02384 11.7867Z" />
        <path d="M28.9762 22.2133C28.992 21.9776 29 21.7398 29 21.5001C29 16.8806 26.0169 12.9579 21.872 11.5532C22.6756 11.1976 23.5647 11.0001 24.5 11.0001C28.0899 11.0001 31 13.9102 31 17.5001C31 19.3553 30.2228 21.029 28.9762 22.2133Z" />
        <path d="M11.7867 28.9762C12.0224 28.992 12.2602 29 12.4999 29C17.1194 29 21.0421 26.0169 22.4468 21.872C22.8024 22.6756 22.9999 23.5647 22.9999 24.5C22.9999 28.0899 20.0898 31 16.4999 31C14.6447 31 12.971 30.2228 11.7867 28.9762Z" />
        <path d="M29.1547 12.2179C28.9993 12.04 28.8368 11.8662 28.6673 11.6967C25.4009 8.43027 20.5177 7.76587 16.5936 9.7035C16.9103 8.88382 17.3994 8.11542 18.0607 7.45407C20.5991 4.91567 24.7147 4.91567 27.2531 7.45407C28.5649 8.76591 29.1988 10.499 29.1547 12.2179Z" />
        <path d="M12.2179 4.84532C12.04 5.00079 11.8662 5.16328 11.6967 5.33276C8.43027 8.59921 7.76587 13.4824 9.7035 17.4065C8.88382 17.0898 8.11542 16.6007 7.45407 15.9394C4.91567 13.401 4.91567 9.28538 7.45407 6.74698C8.76591 5.43514 10.499 4.80126 12.2179 4.84532Z" />
        <path d="M4.84526 21.7821C5.00073 21.96 5.16321 22.1338 5.3327 22.3033C8.59915 25.5697 13.4823 26.2341 17.4064 24.2965C17.0897 25.1162 16.6006 25.8846 15.9393 26.5459C13.4009 29.0843 9.28532 29.0843 6.74691 26.5459C5.43508 25.2341 4.80119 23.501 4.84526 21.7821Z" />
        <path d="M21.7821 29.1547C21.96 28.9993 22.1338 28.8368 22.3033 28.6673C25.5697 25.4009 26.2341 20.5177 24.2965 16.5936C25.1162 16.9103 25.8846 17.3994 26.5459 18.0607C29.0843 20.5991 29.0843 24.7147 26.5459 27.2531C25.2341 28.5649 23.501 29.1988 21.7821 29.1547Z" />
      </g>
      <g>
        <path d="M16.9998 15.465C16.4115 15.8053 15.7285 16 15 16C13.8636 16 12.8379 15.5261 12.1097 14.7652C12.0384 14.9975 12 15.2443 12 15.5C12 16.8807 13.1193 18 14.5 18C15.8807 18 17 16.8807 17 15.5C17 15.4883 16.9999 15.4766 16.9998 15.465Z" />
        <path d="M18.535 16.9998C18.1947 16.4115 18 15.7285 18 15.0001C18 13.8637 18.4739 12.838 19.2348 12.1098C19.0025 12.0385 18.7557 12.0001 18.5 12.0001C17.1193 12.0001 16 13.1193 16 14.5001C16 15.8808 17.1193 17.0001 18.5 17.0001C18.5117 17.0001 18.5234 17 18.535 16.9998Z" />
        <path d="M17.0002 18.535C17.5885 18.1947 18.2715 18 18.9999 18C20.1363 18 21.162 18.4739 21.8902 19.2348C21.9615 19.0025 21.9999 18.7557 21.9999 18.5C21.9999 17.1193 20.8807 16 19.4999 16C18.1192 16 16.9999 17.1193 16.9999 18.5C16.9999 18.5117 17 18.5234 17.0002 18.535Z" />
        <path d="M15.465 17.0002C15.8053 17.5885 16 18.2715 16 18.9999C16 20.1363 15.5261 21.162 14.7652 21.8902C14.9975 21.9615 15.2443 21.9999 15.5 21.9999C16.8807 21.9999 18 20.8807 18 19.4999C18 18.1192 16.8807 16.9999 15.5 16.9999C15.4883 16.9999 15.4766 17 15.465 17.0002Z" />
        <path d="M18.0853 15.9145C17.4287 15.7391 16.808 15.3938 16.2929 14.8787C15.4894 14.0752 15.0992 13.0148 15.1223 11.9618C14.9076 12.0757 14.706 12.223 14.5252 12.4038C13.5489 13.3801 13.5489 14.963 14.5252 15.9393C15.5015 16.9157 17.0844 16.9157 18.0607 15.9393C18.069 15.9311 18.0771 15.9228 18.0853 15.9145Z" />
        <path d="M18.0855 18.0853C18.2609 17.4287 18.6062 16.808 19.1213 16.2929C19.9248 15.4894 20.9852 15.0992 22.0382 15.1223C21.9243 14.9076 21.777 14.706 21.5962 14.5252C20.6199 13.5489 19.037 13.5489 18.0607 14.5252C17.0843 15.5015 17.0843 17.0844 18.0607 18.0607C18.0689 18.069 18.0772 18.0771 18.0855 18.0853Z" />
        <path d="M15.9147 18.0855C16.5713 18.2609 17.192 18.6062 17.7071 19.1213C18.5106 19.9248 18.9008 20.9852 18.8777 22.0382C19.0924 21.9243 19.294 21.777 19.4748 21.5962C20.4511 20.6199 20.4511 19.037 19.4748 18.0607C18.4985 17.0843 16.9156 17.0843 15.9393 18.0607C15.931 18.0689 15.9229 18.0772 15.9147 18.0855Z" />
        <path d="M15.9145 15.9148C15.7391 16.5714 15.3938 17.192 14.8787 17.7071C14.0752 18.5107 13.0148 18.9009 11.9618 18.8777C12.0757 19.0925 12.223 19.2941 12.4038 19.4749C13.3801 20.4512 14.963 20.4512 15.9393 19.4749C16.9157 18.4986 16.9157 16.9157 15.9393 15.9394C15.9311 15.9311 15.9228 15.9229 15.9145 15.9148Z" />
      </g>
    </g>
  </svg>
